<?xml version="1.0" encoding="utf-8"?>
<!-- Generator: Adobe Illustrator 22.1.0, SVG Export Plug-In . SVG Version: 6.00 Build 0)  -->
<svg version="1.1" id="Layer_1" xmlns:serif="http://www.serif.com/"
	 xmlns="http://www.w3.org/2000/svg" xmlns:xlink="http://www.w3.org/1999/xlink" x="0px" y="0px" viewBox="0 0 612 307"
	 style="enable-background:new 0 0 612 307;" xml:space="preserve">
<style type="text/css">
	.st0{fill:none;}
	.st1{fill:#FFFFFF;}
	.st2{fill:#265787;}
	.st3{fill:#EA7600;}
	.st4{fill:#236192;}
	.st5{font-family:'Arial-BoldMT';}
	.st6{font-size:16.9329px;}
	.st7{fill:#310000;}
	.st8{font-family:'DFKaiShu-SB-Estd-BF';}
	.st9{font-size:57px;}
</style>
<g transform="matrix(1,0,0,1,-7.78614,0)">
	<g id="blender_logo_no_socket" transform="matrix(1,0,0,0.835201,7.78614,-42.9907)">
		<rect y="83.6" class="st0" width="612" height="196.8"/>
		<g transform="matrix(4.16667,0,0,4.98882,-191.107,2195.04)">
			<g transform="matrix(5.19226,0,0,5.19226,-1154.33,1375.29)">
				<path class="st1" d="M234.7-342.2c0-0.6,0.3-1.1,0.7-1.4c0.4-0.3,1-0.6,1.6-0.6c0.6,0,1.2,0.2,1.6,0.6c0.4,0.4,0.7,0.9,0.7,1.4
					c0,0.6-0.2,1.1-0.6,1.5c-0.4,0.4-1,0.7-1.7,0.7c-0.7,0-1.3-0.3-1.7-0.7C234.9-341.1,234.7-341.6,234.7-342.2z"/>
			</g>
			<g transform="matrix(2.66418,0,0,2.66418,-520.324,532.513)">
				<path class="st2" d="M221.7-350.5c0-0.6,0.3-1.1,0.7-1.4c0.4-0.3,1-0.6,1.6-0.6c0.6,0,1.2,0.2,1.6,0.6c0.4,0.4,0.7,0.9,0.7,1.4
					c0,0.6-0.2,1.1-0.6,1.5c-0.4,0.4-1,0.7-1.7,0.7c-0.7,0-1.3-0.3-1.7-0.7C221.9-349.4,221.6-350,221.7-350.5z"/>
			</g>
			<g transform="matrix(2.66418,0,0,2.66418,-520.324,532.513)">
				<path class="st3" d="M218-349.4c0,0.2,0.1,0.7,0.2,1c0.2,0.7,0.6,1.4,1.1,1.9c0.5,0.6,1.2,1.1,2,1.4c0.8,0.4,1.7,0.5,2.6,0.5
					c0.9,0,1.8-0.2,2.6-0.5c0.8-0.3,1.4-0.8,2-1.4c0.5-0.6,0.9-1.2,1.1-2c0.1-0.4,0.2-0.7,0.2-1.1c0-0.4,0-0.7,0-1.1
					c-0.1-0.7-0.3-1.4-0.7-2c-0.3-0.6-0.8-1-1.3-1.4l0,0l-5.3-4.1c0,0,0,0,0,0c-0.3-0.3-0.9-0.3-1.3,0c-0.4,0.3-0.4,0.7-0.1,1l0,0
					l2.2,1.8l-6.7,0h0c-0.6,0-1.1,0.4-1.2,0.8c-0.1,0.5,0.3,0.9,0.8,0.9l0,0l3.4,0l-6.1,4.7c0,0,0,0,0,0c-0.6,0.4-0.8,1.2-0.4,1.6
					c0.4,0.5,1.1,0.5,1.7,0l3.3-2.7C218.1-350,218-349.6,218-349.4z M226.6-348.2c-0.7,0.7-1.6,1.1-2.7,1.1c-1,0-2-0.4-2.7-1.1
					c-0.3-0.3-0.6-0.7-0.7-1.1c-0.1-0.4-0.2-0.8-0.2-1.3c0-0.4,0.2-0.8,0.4-1.2c0.2-0.4,0.5-0.7,0.8-1c0.7-0.5,1.5-0.8,2.4-0.8
					c0.9,0,1.7,0.3,2.4,0.8c0.3,0.3,0.6,0.6,0.8,1c0.2,0.4,0.3,0.8,0.4,1.2c0,0.4,0,0.9-0.2,1.3
					C227.1-348.9,226.9-348.5,226.6-348.2z"/>
			</g>
			<g transform="matrix(2.66418,0,0,2.66418,-520.324,532.513)">
				<path class="st2" d="M257.9-350.5c0.1-0.6,0.5-0.9,1.2-0.9c0.7,0,1.1,0.4,1.2,0.9H257.9z M260.2-349.1c-0.2,0.4-0.6,0.7-1.1,0.7
					c-0.7,0-1.2-0.4-1.2-1.1h4v-0.2c0-1.7-1-2.7-2.8-2.7c-1.7,0-2.8,1-2.8,2.5c0,1.5,1.1,2.5,2.8,2.5c1,0,1.8-0.4,2.3-1L260.2-349.1
					z"/>
			</g>
			<g transform="matrix(2.66418,0,0,2.66418,-520.324,532.513)">
				<path class="st2" d="M240.3-350.5c0.1-0.6,0.5-0.9,1.2-0.9c0.7,0,1.1,0.4,1.2,0.9H240.3z M242.6-349.1c-0.2,0.4-0.6,0.7-1.1,0.7
					c-0.7,0-1.2-0.4-1.2-1.1h4v-0.2c0-1.7-1-2.7-2.8-2.7c-1.7,0-2.8,1-2.8,2.5c0,1.5,1.1,2.5,2.8,2.5c1,0,1.8-0.4,2.3-1L242.6-349.1
					z"/>
			</g>
			<g transform="matrix(2.66418,0,0,2.66418,-520.324,532.513)">
				<rect x="236.8" y="-353.5" class="st2" width="1.4" height="5.9"/>
			</g>
			<g transform="matrix(2.66418,0,0,2.66418,-520.324,532.513)">
				<path class="st2" d="M244.6-351.9h1.4v0.3c0.5-0.5,1.1-0.8,1.8-0.8c0.8,0,1.4,0.3,1.7,0.7c0.3,0.4,0.3,0.9,0.3,1.5v2.6h-1.4
					v-2.3c0-0.9-0.2-1.4-1-1.4c-0.8,0-1.3,0.5-1.3,1.3v2.3h-1.4V-351.9z"/>
			</g>
			<g transform="matrix(2.66418,0,0,2.66418,-520.324,532.513)">
				<path class="st2" d="M254.5-349.9c0,0.8-0.5,1.3-1.4,1.3c-0.8,0-1.4-0.5-1.4-1.3c0-0.8,0.5-1.3,1.4-1.3
					C253.9-351.2,254.5-350.7,254.5-349.9z M254.5-351.7c-0.4-0.4-0.9-0.6-1.6-0.6c-1.6,0-2.7,1-2.7,2.4c0,1.4,1.1,2.4,2.6,2.4
					c0.7,0,1.2-0.2,1.7-0.6v0.4h1.4v-6.2l-1.4,0.4V-351.7z"/>
			</g>
			<g transform="matrix(2.66418,0,0,2.66418,-520.324,532.513)">
				<path class="st2" d="M233.6-351.2c0.8,0,1.4,0.5,1.4,1.3c0,0.8-0.5,1.3-1.4,1.3c-0.8,0-1.4-0.5-1.4-1.3
					C232.2-350.7,232.7-351.2,233.6-351.2z M232.2-353.5l-1.4-0.4v6.2h1.4v-0.4c0.4,0.4,0.9,0.6,1.6,0.6c1.6,0,2.6-1,2.6-2.4
					c0-1.5-1.1-2.4-2.7-2.4c-0.7,0-1.3,0.2-1.6,0.6V-353.5z"/>
			</g>
			<g transform="matrix(2.66418,0,0,2.66418,-520.324,532.513)">
				<path class="st2" d="M262.2-347.6v-4.3h1.4v0.3c0.4-0.5,0.9-0.8,1.4-0.8c0.1,0,0.2,0,0.4,0v1.2c-0.1,0-0.3,0-0.5,0
					c-0.8,0-1.4,0.6-1.4,1.5v2.1H262.2z"/>
			</g>
			<g transform="matrix(0.271988,0,0,0.271988,-78.0964,-584.901)">
				<text transform="matrix(0.8824 0 0 0.8824 980.9942 658.3717)" class="st4 st5 st6">®</text>
			</g>
		</g>
	</g>
</g>
<rect x="221.3" y="188" class="st0" width="290" height="49"/>
<text transform="matrix(1 0 0 1 221.3378 228.3008)" class="st7 st8 st9">基礎教學網</text>
</svg>
